# xmcd
#
# Track frame offsets: 
#        150
#        20590
#        39622
#        53010
#        66172
#        79340
#        93212
#        107987
#        121580
#        136990
#        148712
#        162455
#        175312
#        188580
#        202135
#        216135
#        229432
#        241047
#        254727
#
# Disc length: 3598 seconds
#
# Revision: 2
# Processed by: cddbd v1.4PL0 Copyright (c) Steve Scherf et al.
# Submitted via: ExactAudioCopy v0.95a1
#
DISCID=160e0c13
DTITLE=Louis Armstrong - The Complete RCA Recordings (Disk 3)
DYEAR=1900
DGENRE=Jazz
TTITLE0=Long, Long Journey
TTITLE1=Snafu
TTITLE2=Linger in my Arms a Little Longer
TTITLE3=Whatta You Gonna Do
TTITLE4=No Variety Blues
TTITLE5=Joseph 'N' His Brudders
TTITLE6=Back o' Town Blues
TTITLE7=I Want a Little Girl
TTITLE8=Sugar
TTITLE9=Blues for Yesterday
TTITLE10=Blues in the South
TTITLE11=Endie
TTITLE12=The Blues are a Brewin'
TTITLE13=Do You Know What it Means to Miss New Orleans
TTITLE14=Where The Blues Were Born In New Orleans
TTITLE15=Mahogany Hall Stomp
TTITLE16=I Wonder, I Wonder, I Wonder
TTITLE17=I Believe
TTITLE18=Why Doubt My Love?
EXTD=
EXTT0=
EXTT1=
EXTT2=
EXTT3=
EXTT4=
EXTT5=
EXTT6=
EXTT7=
EXTT8=
EXTT9=
EXTT10=
EXTT11=
EXTT12=
EXTT13=
EXTT14=
EXTT15=
EXTT16=
EXTT17=
EXTT18=
PLAYORDER=
